<svg width="40" height="40" viewBox="0 0 40 40" fill="none" xmlns="http://www.w3.org/2000/svg">
<path fill-rule="evenodd" clip-rule="evenodd" d="M4.99516 21.2398H11.2311C12.6128 21.2398 14.9862 21.8412 14.9862 24.497C14.9862 25.878 13.8883 27.5078 12.5066 27.5078H4.99516V21.2398ZM25.0126 8.73953H36.2444V12.4933H25.0126V8.73953ZM34.7565 21.2398H26.5005C26.7849 19.0084 28.4497 17.5213 30.6467 17.5213C32.8072 17.5213 34.4012 19.0445 34.7565 21.2398ZM26.2527 23.7541H40C40 23.5419 40 23.3295 40 23.1161C40 17.9466 36.2797 13.7681 30.6467 13.7681C24.9772 13.7681 21.2569 17.9465 21.2569 23.1161C21.2569 28.3216 24.9772 32.5 30.6467 32.5C36.2797 32.5 38.9723 29.278 39.8217 24.9936H34.7564C34.295 27.1883 32.9841 28.7474 30.6467 28.7474C28.2728 28.7474 26.4297 26.5514 26.2527 23.7541ZM20.018 24.9936C20.018 22.267 18.2103 19.9295 15.7661 19.0798C17.5372 17.9819 18.7419 15.9988 18.7419 13.7681C18.7419 10.2973 15.9431 7.5 12.5066 7.5H0V32.5H12.5066C16.6163 32.5 20.018 29.1366 20.018 24.9936ZM11.2311 17.5213H4.99516V12.4933H11.2311C12.6128 12.4933 13.7467 13.6261 13.7467 15.007C13.7467 16.3886 12.6128 17.5213 11.2311 17.5213Z" fill="url(#paint0_linear_8_99)"/>
<defs>
<linearGradient id="paint0_linear_8_99" x1="20" y1="7.5" x2="20" y2="32.5" gradientUnits="userSpaceOnUse">
<stop stop-color="#5D9BF8"/>
<stop offset="1" stop-color="#173C9B"/>
</linearGradient>
</defs>
</svg>
