<svg width="40" height="40" viewBox="0 0 40 40" fill="none" xmlns="http://www.w3.org/2000/svg">
<path fill-rule="evenodd" clip-rule="evenodd" d="M20.018 37.4845C15.8723 37.4845 12.0812 36.0673 9.06945 33.658C12.6482 28.6976 17.6434 24.8003 23.5247 22.9938C25.1896 27.2805 26.4297 31.7088 27.1742 35.9612C24.9772 36.9523 22.5678 37.4845 20.018 37.4845ZM7.22766 31.9577C4.28664 28.8391 2.51563 24.6233 2.51563 20.018C2.51563 19.805 2.51563 19.592 2.51563 19.3796C8.6093 19.6274 15.093 18.9903 20.9384 17.0056C21.5059 18.2103 22.0723 19.415 22.5678 20.6551C16.3685 22.6386 11.0541 26.7141 7.22766 31.9577ZM2.76344 16.8995C3.79055 11.1604 7.65242 6.37688 12.7898 4.03891C15.4116 7.22766 17.7502 10.8766 19.805 14.7384C14.4198 16.5455 8.43234 17.1124 2.76344 16.8995ZM15.27 3.15336C16.7579 2.72797 18.3526 2.51563 20.018 2.51563C24.5524 2.51563 28.6621 4.21586 31.7795 7.05008C29.193 10.0972 25.8633 12.3291 22.143 13.8884C20.1242 10.0264 17.8209 6.37688 15.27 3.15336ZM33.5163 8.8925C35.9966 11.8689 37.4845 15.7307 37.4845 19.9112C33.055 19.0257 28.8391 19.1319 25.0126 19.982C24.4816 18.6711 23.8787 17.3956 23.277 16.1201C27.1742 14.4552 30.7176 12.0812 33.5163 8.8925ZM37.3428 22.4262C36.6337 27.5637 33.6579 31.993 29.4774 34.7211C28.6975 30.6468 27.4928 26.4297 25.9341 22.3555C29.442 21.6121 33.2686 21.5767 37.3428 22.4262ZM40 20.018C40 8.96328 31.0362 0 20.018 0C8.96328 0 0 8.96328 0 20.018C0 31.0362 8.96328 40 20.018 40C31.0362 40 40 31.0362 40 20.018Z" fill="url(#paint0_linear_8_96)"/>
<defs>
<linearGradient id="paint0_linear_8_96" x1="20" y1="0" x2="20" y2="40" gradientUnits="userSpaceOnUse">
<stop stop-color="#5D9BF8"/>
<stop offset="1" stop-color="#173C9B"/>
</linearGradient>
</defs>
</svg>
