<svg width="40" height="40" viewBox="0 0 40 40" fill="none" xmlns="http://www.w3.org/2000/svg">
<path fill-rule="evenodd" clip-rule="evenodd" d="M20.018 40C31.0008 40 40 31.0008 40 20.018C40 8.99875 31.0008 0 20.018 0C8.99875 0 0 8.99875 0 20.018C0 31.0008 8.99875 40 20.018 40Z" fill="url(#paint0_linear_8_106)"/>
<path fill-rule="evenodd" clip-rule="evenodd" d="M26.2527 13.7467V9.99101H30.0084V13.7467H26.2527ZM25.7217 17.5018H30.0084V28.7683C30.0084 29.442 29.442 30.0083 28.7683 30.0083H11.2311C10.558 30.0083 9.99094 29.442 9.99094 28.7683V17.5018H14.2776C13.9237 18.2812 13.7466 19.0965 13.7466 20.018C13.7466 23.4538 16.5454 26.2526 20.0179 26.2526C23.4537 26.2526 26.2526 23.4539 26.2526 20.018C26.2527 19.0965 26.0758 18.2812 25.7217 17.5018ZM32.5241 9.99101C32.5241 8.60929 31.3901 7.51086 30.0084 7.51086H9.99102C8.6093 7.51086 7.51086 8.60937 7.51086 9.99101V30.0084C7.51086 31.3901 8.60938 32.5241 9.99102 32.5241H30.0084C31.3902 32.5241 32.5241 31.3901 32.5241 30.0084V9.99101ZM20.018 16.2617C22.0722 16.2617 23.737 17.9272 23.737 20.018C23.737 22.0723 22.0721 23.7371 20.018 23.7371C17.9271 23.7371 16.2616 22.0722 16.2616 20.018C16.2617 17.9272 17.9272 16.2617 20.018 16.2617Z" fill="white"/>
<defs>
<linearGradient id="paint0_linear_8_106" x1="20" y1="0" x2="20" y2="40" gradientUnits="userSpaceOnUse">
<stop stop-color="#5D9BF8"/>
<stop offset="1" stop-color="#173C9B"/>
</linearGradient>
</defs>
</svg>
