<svg width="40" height="40" viewBox="0 0 40 40" fill="none" xmlns="http://www.w3.org/2000/svg">
<path fill-rule="evenodd" clip-rule="evenodd" d="M20.018 40C31.0008 40 40 31.0008 40 20.018C40 8.99875 31.0008 0 20.018 0C8.99875 0 0 8.99875 0 20.018C0 31.0008 8.99875 40 20.018 40Z" fill="url(#paint0_linear_8_92)"/>
<path fill-rule="evenodd" clip-rule="evenodd" d="M13.7467 31.2484H9.99101V13.7467H13.7467V31.2484ZM25.7217 13.7467C29.0515 13.7467 31.2484 15.6948 31.2484 20.018V31.2484H27.4928V21.2569C27.4928 18.8481 26.6079 17.5019 24.5524 17.5019C22.497 17.5019 20.018 19.2381 20.018 21.2569V31.2484H16.2617V13.7467H20.018V16.2617C21.2569 14.9862 23.1 13.7467 25.7217 13.7467ZM11.8689 6.23531C13.2506 6.23531 14.3844 7.36922 14.3844 8.75094C14.3844 10.1327 13.2505 11.2312 11.8689 11.2312C10.4872 11.2312 9.35327 10.1327 9.35327 8.75094C9.35327 7.36922 10.4872 6.23531 11.8689 6.23531Z" fill="white"/>
<defs>
<linearGradient id="paint0_linear_8_92" x1="20" y1="0" x2="20" y2="40" gradientUnits="userSpaceOnUse">
<stop stop-color="#5D9BF8"/>
<stop offset="1" stop-color="#173C9B"/>
</linearGradient>
</defs>
</svg>
