<svg width="40" height="40" viewBox="0 0 40 40" fill="none" xmlns="http://www.w3.org/2000/svg">
<path fill-rule="evenodd" clip-rule="evenodd" d="M20.018 40C31.0008 40 40 31.0008 40 20.018C40 8.99875 31.0008 0 20.018 0C8.99875 0 0 8.99875 0 20.018C0 31.0008 8.99875 40 20.018 40Z" fill="url(#paint0_linear_8_102)"/>
<path fill-rule="evenodd" clip-rule="evenodd" d="M21.6121 10.7349C20.903 11.2311 20.372 11.9396 19.982 12.719L19.8051 13.1798C19.6989 13.4983 19.6275 13.8175 19.5921 14.1361C19.5567 14.313 19.5567 14.4552 19.5213 14.5969V14.8801L19.5567 15.3409L19.6275 15.9432H19.5921H19.3797H19.238C17.5018 15.9078 15.8016 15.5178 14.313 14.8447L13.4276 14.4199C13.2506 14.3485 13.109 14.2423 12.9314 14.1362C11.9397 13.5692 11.0542 12.8252 10.2742 12.0105C9.77868 11.479 9.31789 10.912 8.92797 10.3097C8.50313 11.1251 8.25485 12.0813 8.25485 13.0737C8.25485 13.4277 8.29024 13.7822 8.36102 14.1362C8.36102 14.3131 8.39641 14.4553 8.43243 14.597C8.75102 15.6595 9.31789 16.6164 10.0973 17.3249L10.4873 17.6795L9.9911 17.5727C9.35336 17.3957 8.71563 17.1834 8.11329 16.9349C8.18407 18.2105 8.68024 19.3797 9.45954 20.3013C10.2034 21.1862 11.1958 21.8599 12.3291 22.1784L11.0182 22.2492L9.92024 22.2138C10.735 24.1984 12.6128 25.6509 14.8447 25.828C12.7898 27.3513 10.2388 28.202 7.51086 28.202C9.53032 29.4421 11.8335 30.2209 14.3484 30.3624H15.9785C23.7371 29.9376 29.8668 23.5248 29.8668 15.6594V14.9155C30.15 14.6677 30.4332 14.4199 30.7176 14.1362C31.3901 13.5338 31.993 12.8252 32.4887 12.0813C31.6733 12.6129 30.7176 12.8961 29.6545 12.8961H29.6191H29.5837H29.6191C30.5748 12.2584 31.3194 11.302 31.7087 10.2035C30.9654 10.5935 30.1147 10.8766 29.2639 11.1251L29.1577 11.1605L28.5206 11.302C27.5991 10.3097 26.2882 9.67195 24.8357 9.67195H24.8004H24.7296C24.3402 9.67195 23.9497 9.70734 23.5602 9.77875C22.9939 9.92031 22.4263 10.1681 21.9662 10.4519L21.6121 10.7349Z" fill="white"/>
<defs>
<linearGradient id="paint0_linear_8_102" x1="20" y1="0" x2="20" y2="40" gradientUnits="userSpaceOnUse">
<stop stop-color="#5D9BF8"/>
<stop offset="1" stop-color="#173C9B"/>
</linearGradient>
</defs>
</svg>
